<?xml version="1.0" encoding="UTF-8"?>
<svg width="320px" height="200px" viewBox="0 0 320 200" version="1.1" xmlns="http://www.w3.org/2000/svg" xmlns:xlink="http://www.w3.org/1999/xlink">
    <!-- Generator: Sketch 46.2 (44496) - http://www.bohemiancoding.com/sketch -->
    <title>img_BWS</title>
    <desc>Created with Sketch.</desc>
    <defs>
        <rect id="path-1" x="0" y="0" width="320" height="200"></rect>
        <filter x="-4.1%" y="-2.8%" width="108.1%" height="106.5%" filterUnits="objectBoundingBox" id="filter-3">
            <feOffset dx="0" dy="2" in="SourceAlpha" result="shadowOffsetOuter1"></feOffset>
            <feGaussianBlur stdDeviation="4" in="shadowOffsetOuter1" result="shadowBlurOuter1"></feGaussianBlur>
            <feColorMatrix values="0 0 0 0 0   0 0 0 0 0   0 0 0 0 0  0 0 0 0.05 0" type="matrix" in="shadowBlurOuter1" result="shadowMatrixOuter1"></feColorMatrix>
            <feMerge>
                <feMergeNode in="shadowMatrixOuter1"></feMergeNode>
                <feMergeNode in="SourceGraphic"></feMergeNode>
            </feMerge>
        </filter>
        <rect id="path-4" x="0" y="0" width="320" height="400"></rect>
        <linearGradient x1="31.1178248%" y1="40.7185629%" x2="-6.04347621%" y2="17.6635011%" id="linearGradient-6">
            <stop stop-color="#000000" stop-opacity="0" offset="0%"></stop>
            <stop stop-color="#000000" offset="100%"></stop>
        </linearGradient>
        <rect id="path-7" x="37" y="0" width="320" height="320"></rect>
        <rect id="path-8" x="95.4634146" y="71.5365854" width="350" height="262.926829" rx="0.4"></rect>
        <filter x="-3.7%" y="-4.2%" width="107.4%" height="109.9%" filterUnits="objectBoundingBox" id="filter-9">
            <feOffset dx="0" dy="2" in="SourceAlpha" result="shadowOffsetOuter1"></feOffset>
            <feGaussianBlur stdDeviation="4" in="shadowOffsetOuter1" result="shadowBlurOuter1"></feGaussianBlur>
            <feColorMatrix values="0 0 0 0 0   0 0 0 0 0   0 0 0 0 0  0 0 0 0.1 0" type="matrix" in="shadowBlurOuter1"></feColorMatrix>
        </filter>
        <rect id="path-10" x="20" y="6" width="226" height="170" rx="0.4"></rect>
        <filter x="-1.3%" y="-1.8%" width="102.7%" height="103.5%" filterUnits="objectBoundingBox" id="filter-11">
            <feOffset dx="0" dy="2" in="SourceAlpha" result="shadowOffsetOuter1"></feOffset>
            <feGaussianBlur stdDeviation="2" in="shadowOffsetOuter1" result="shadowBlurOuter1"></feGaussianBlur>
            <feColorMatrix values="0 0 0 0 0   0 0 0 0 0   0 0 0 0 0  0 0 0 0.5 0" type="matrix" in="shadowBlurOuter1"></feColorMatrix>
        </filter>
        <rect id="path-12" x="79.5" y="92.5" width="115" height="154"></rect>
        <filter x="-6.1%" y="-3.2%" width="112.2%" height="109.1%" filterUnits="objectBoundingBox" id="filter-13">
            <feOffset dx="0" dy="2" in="SourceAlpha" result="shadowOffsetOuter1"></feOffset>
            <feGaussianBlur stdDeviation="2" in="shadowOffsetOuter1" result="shadowBlurOuter1"></feGaussianBlur>
            <feColorMatrix values="0 0 0 0 0   0 0 0 0 0   0 0 0 0 0  0 0 0 0.2 0" type="matrix" in="shadowBlurOuter1"></feColorMatrix>
        </filter>
        <rect id="path-14" x="173.936709" y="116.063291" width="50.1265823" height="90"></rect>
        <filter x="-14.0%" y="-5.6%" width="127.9%" height="115.6%" filterUnits="objectBoundingBox" id="filter-15">
            <feOffset dx="0" dy="2" in="SourceAlpha" result="shadowOffsetOuter1"></feOffset>
            <feGaussianBlur stdDeviation="2" in="shadowOffsetOuter1" result="shadowBlurOuter1"></feGaussianBlur>
            <feColorMatrix values="0 0 0 0 0   0 0 0 0 0   0 0 0 0 0  0 0 0 0.2 0" type="matrix" in="shadowBlurOuter1"></feColorMatrix>
        </filter>
        <rect id="path-16" x="118" y="46" width="50.1265823" height="90"></rect>
        <filter x="-14.0%" y="-5.6%" width="127.9%" height="115.6%" filterUnits="objectBoundingBox" id="filter-17">
            <feOffset dx="0" dy="2" in="SourceAlpha" result="shadowOffsetOuter1"></feOffset>
            <feGaussianBlur stdDeviation="2" in="shadowOffsetOuter1" result="shadowBlurOuter1"></feGaussianBlur>
            <feColorMatrix values="0 0 0 0 0   0 0 0 0 0   0 0 0 0 0  0 0 0 0.2 0" type="matrix" in="shadowBlurOuter1"></feColorMatrix>
        </filter>
        <filter x="-73.1%" y="-45.3%" width="240.0%" height="193.8%" filterUnits="objectBoundingBox" id="filter-18">
            <feOffset dx="-2" dy="2" in="SourceAlpha" result="shadowOffsetOuter1"></feOffset>
            <feGaussianBlur stdDeviation="14.5" in="shadowOffsetOuter1" result="shadowBlurOuter1"></feGaussianBlur>
            <feColorMatrix values="0 0 0 0 0   0 0 0 0 0   0 0 0 0 0  0 0 0 0.2 0" type="matrix" in="shadowBlurOuter1" result="shadowMatrixOuter1"></feColorMatrix>
            <feMerge>
                <feMergeNode in="shadowMatrixOuter1"></feMergeNode>
                <feMergeNode in="SourceGraphic"></feMergeNode>
            </feMerge>
        </filter>
        <path d="M2,0 L62.6,0 L62.6,-4.4408921e-16 C63.9254834,2.84422069e-15 65,1.0745166 65,2.4 L65,93.6 L65,93.6 C65,94.9254834 63.9254834,96 62.6,96 L2.4,96 L2.4,96 C1.0745166,96 -2.95916522e-14,94.9254834 -2.97539771e-14,93.6 L-2.84217094e-14,2 L-2.8643754e-14,2 C-2.87790248e-14,0.8954305 0.8954305,-1.91384796e-17 2,-2.22044605e-16 Z" id="path-19"></path>
        <path d="M2.4,0 L72.2296296,0 L72.2296296,0 C73.555113,-2.4348735e-16 74.6296296,1.0745166 74.6296296,2.4 L74.6296296,49.4 L74.6296296,49.4 C74.6296296,49.9522847 74.1819144,50.4 73.6296296,50.4 L1,50.4 L1,50.4 C0.44771525,50.4 6.76353751e-17,49.9522847 0,49.4 L0,2.4 L0,2.4 C-1.623249e-16,1.0745166 1.0745166,-1.53286949e-15 2.4,-1.77635684e-15 Z" id="path-20"></path>
        <path d="M1,0 L73.6296296,0 L73.6296296,0 C74.1819144,-1.01453063e-16 74.6296296,0.44771525 74.6296296,1 L74.6296296,9.6 L0,9.6 L0,1 L0,1 C-6.76353751e-17,0.44771525 0.44771525,1.01453063e-16 1,0 Z" id="path-21"></path>
        <rect id="path-22" x="8.29218107" y="15.6" width="56.8606702" height="8.4" rx="1.2"></rect>
        <rect id="path-23" x="8.29218107" y="26.4" width="37.9071135" height="14.4" rx="1.2"></rect>
        <rect id="path-24" x="49.7530864" y="26.4" width="15.3997648" height="14.4" rx="1.2"></rect>
        <filter x="-15.6%" y="-8.3%" width="121.3%" height="131.0%" filterUnits="objectBoundingBox" id="filter-25">
            <feOffset dx="-7" dy="7" in="SourceAlpha" result="shadowOffsetOuter1"></feOffset>
            <feGaussianBlur stdDeviation="2.5" in="shadowOffsetOuter1" result="shadowBlurOuter1"></feGaussianBlur>
            <feColorMatrix values="0 0 0 0 0   0 0 0 0 0   0 0 0 0 0  0 0 0 0.1 0" type="matrix" in="shadowBlurOuter1" result="shadowMatrixOuter1"></feColorMatrix>
            <feMerge>
                <feMergeNode in="shadowMatrixOuter1"></feMergeNode>
                <feMergeNode in="SourceGraphic"></feMergeNode>
            </feMerge>
        </filter>
        <path d="M7.27851038,0 L114.684249,0 L114.684249,-4.4408921e-16 C116.009732,-6.8757656e-16 117.084249,1.0745166 117.084249,2.4 L117.084249,79.1162791 L4.87851038,79.1162791 L4.87851038,2.4 L4.87851038,2.4 C4.87851038,1.0745166 5.95302698,-8.63829685e-15 7.27851038,-8.8817842e-15 Z" id="path-26"></path>
        <rect id="path-27" x="0" y="0" width="101" height="67" rx="2.4"></rect>
        <path d="M2.4,0 L98.6,0 L98.6,-4.4408921e-16 C99.9254834,7.5532837e-15 101,1.0745166 101,2.4 L101,11.3239437 L0,11.3239437 L0,2.4 L-4.4408921e-16,2.4 C-6.0641411e-16,1.0745166 1.0745166,6.8757656e-16 2.4,4.4408921e-16 Z" id="path-28"></path>
        <rect id="path-29" x="11.4339623" y="20.7605634" width="76.2264151" height="11.3239437" rx="1.2"></rect>
        <rect id="path-30" x="11.4339623" y="35.8591549" width="51.4528302" height="18.8732394" rx="1.2"></rect>
        <rect id="path-31" x="66.6981132" y="35.8591549" width="20.9622642" height="18.8732394" rx="1.2"></rect>
        <filter x="-144.1%" y="-69.4%" width="379.4%" height="253.2%" filterUnits="objectBoundingBox" id="filter-32">
            <feOffset dx="-2" dy="5" in="SourceAlpha" result="shadowOffsetOuter1"></feOffset>
            <feGaussianBlur stdDeviation="14.5" in="shadowOffsetOuter1" result="shadowBlurOuter1"></feGaussianBlur>
            <feColorMatrix values="0 0 0 0 0   0 0 0 0 0   0 0 0 0 0  0 0 0 0.2 0" type="matrix" in="shadowBlurOuter1" result="shadowMatrixOuter1"></feColorMatrix>
            <feMerge>
                <feMergeNode in="shadowMatrixOuter1"></feMergeNode>
                <feMergeNode in="SourceGraphic"></feMergeNode>
            </feMerge>
        </filter>
        <rect id="path-33" x="0" y="0" width="31.5714286" height="47.6923077" rx="1.2"></rect>
        <path d="M1.2,0 L30.3714286,0 L30.3714286,-5.99520433e-15 C31.0341703,-4.35104938e-15 31.5714286,0.5372583 31.5714286,1.2 L31.5714286,7.15384615 L0,7.15384615 L0,1.2 L0,1.2 C-8.11624501e-17,0.5372583 0.5372583,-5.4439014e-16 1.2,-6.66133815e-16 Z" id="path-34"></path>
        <rect id="path-35" x="3.64285714" y="9.53846154" width="24.2857143" height="11.9230769" rx="1.2"></rect>
        <rect id="path-36" x="3.64285714" y="23.8461538" width="24.2857143" height="7.15384615" rx="1.2"></rect>
        <rect id="path-37" x="3.64285714" y="33.3846154" width="24.2857143" height="7.15384615" rx="1.2"></rect>
    </defs>
    <g id="Cards" stroke="none" stroke-width="1" fill="none" fill-rule="evenodd">
        <g id="cards" transform="translate(-240.000000, -3276.000000)">
            <g id="img_BWS" transform="translate(240.000000, 3276.000000)">
                <mask id="mask-2" fill="white">
                    <use xlink:href="#path-1"></use>
                </mask>
                <use id="Rectangle-13" fill="#FFFFFF" xlink:href="#path-1"></use>
                <g id="BWS_purple" filter="url(#filter-3)" mask="url(#mask-2)">
                    <g transform="translate(-1.000000, -12.000000)">
                        <mask id="mask-5" fill="white">
                            <use xlink:href="#path-4"></use>
                        </mask>
                        <use id="Rectangle-6" stroke="none" fill="#FFFFFF" fill-rule="evenodd" xlink:href="#path-4"></use>
                        <g id="Group" stroke="none" stroke-width="1" fill="none" fill-rule="evenodd" mask="url(#mask-5)">
                            <g transform="translate(-36.000000, -4.000000)">
                                <g id="Rectangle-4" fill-rule="evenodd">
                                    <use fill="#3320BD" xlink:href="#path-7"></use>
                                    <use fill-opacity="0.2" fill="url(#linearGradient-6)" xlink:href="#path-7"></use>
                                </g>
                                <g id="Rectangle-3-Copy-17" transform="translate(270.463415, 203.000000) rotate(-270.000000) translate(-270.463415, -203.000000) ">
                                    <use fill="black" fill-opacity="1" filter="url(#filter-9)" xlink:href="#path-8"></use>
                                    <use fill="#23208E" fill-rule="evenodd" xlink:href="#path-8"></use>
                                </g>
                                <g id="Rectangle-3-Copy-18" opacity="0">
                                    <use fill="black" fill-opacity="1" filter="url(#filter-11)" xlink:href="#path-10"></use>
                                    <use fill="#393084" fill-rule="evenodd" xlink:href="#path-10"></use>
                                </g>
                                <g id="Rectangle-14-Copy-5" transform="translate(137.000000, 169.500000) rotate(-270.000000) translate(-137.000000, -169.500000) ">
                                    <use fill="black" fill-opacity="1" filter="url(#filter-13)" xlink:href="#path-12"></use>
                                    <use fill="#21119C" fill-rule="evenodd" xlink:href="#path-12"></use>
                                </g>
                                <g id="Rectangle-16-Copy-6" transform="translate(199.000000, 161.063291) rotate(-90.000000) translate(-199.000000, -161.063291) ">
                                    <use fill="black" fill-opacity="1" filter="url(#filter-15)" xlink:href="#path-14"></use>
                                    <use fill="#3C2BBA" fill-rule="evenodd" xlink:href="#path-14"></use>
                                </g>
                                <g id="Rectangle-16-Copy-5" transform="translate(143.063291, 91.000000) rotate(-180.000000) translate(-143.063291, -91.000000) ">
                                    <use fill="black" fill-opacity="1" filter="url(#filter-17)" xlink:href="#path-16"></use>
                                    <use fill="#3927C6" fill-rule="evenodd" xlink:href="#path-16"></use>
                                </g>
                            </g>
                        </g>
                        <g id="tablet" filter="url(#filter-18)" stroke="none" stroke-width="1" fill="none" fill-rule="evenodd" transform="translate(226.000000, 106.500000) rotate(-270.000000) translate(-226.000000, -106.500000) translate(193.500000, 58.500000)">
                            <g id="Rectangle-30">
                                <use fill="#4B35EF" fill-rule="evenodd" xlink:href="#path-19"></use>
                                <path stroke="#9F96EA" stroke-width="2" d="M2,1 C1.44771525,1 1,1.44771525 1,2 L1,93.6 C1,94.3731986 1.62680135,95 2.4,95 L62.6,95 C63.3731986,95 64,94.3731986 64,93.6 L64,2.4 C64,1.62680135 63.3731986,1 62.6,1 L2,1 Z"></path>
                            </g>
                            <g id="web-browser" transform="translate(32.800000, 48.614815) rotate(-90.000000) translate(-32.800000, -48.614815) translate(-4.700000, 23.114815)">
                                <g id="Rectangle-5">
                                    <use fill="#FFFFFF" fill-rule="evenodd" xlink:href="#path-20"></use>
                                    <path stroke="#393084" stroke-width="1" d="M2.4,0.5 C1.35065898,0.5 0.5,1.35065898 0.5,2.4 L0.5,49.4 C0.5,49.6761424 0.723857625,49.9 1,49.9 L73.6296296,49.9 C73.905772,49.9 74.1296296,49.6761424 74.1296296,49.4 L74.1296296,2.4 C74.1296296,1.35065898 73.2789707,0.5 72.2296296,0.5 L2.4,0.5 Z"></path>
                                </g>
                                <g id="Rectangle-8">
                                    <use fill="#34B3A0" fill-rule="evenodd" xlink:href="#path-21"></use>
                                    <path stroke="#393084" stroke-width="1" d="M0.5,9.1 L74.1296296,9.1 L74.1296296,1 C74.1296296,0.723857625 73.905772,0.5 73.6296296,0.5 L1,0.5 C0.723857625,0.5 0.5,0.723857625 0.5,1 L0.5,9.1 Z"></path>
                                </g>
                                <g id="Rectangle-8-Copy">
                                    <use fill="#D8D8D8" fill-rule="evenodd" xlink:href="#path-22"></use>
                                    <rect stroke="#BEBFC1" stroke-width="1.2" x="8.89218107" y="16.2" width="55.6606702" height="7.2" rx="1.2"></rect>
                                </g>
                                <g id="Rectangle-8-Copy-3">
                                    <use fill="#D8D8D8" fill-rule="evenodd" xlink:href="#path-23"></use>
                                    <rect stroke="#BEBFC1" stroke-width="1.2" x="8.89218107" y="27" width="36.7071135" height="13.2" rx="1.2"></rect>
                                </g>
                                <g id="Rectangle-8-Copy-4">
                                    <use fill="#D8D8D8" fill-rule="evenodd" xlink:href="#path-24"></use>
                                    <rect stroke="#BEBFC1" stroke-width="1.2" x="50.3530864" y="27" width="14.1997648" height="13.2" rx="1.2"></rect>
                                </g>
                                <circle id="Oval" fill="#311B92" cx="4.73838918" cy="4.8" r="1.2"></circle>
                                <circle id="Oval" fill="#311B92" cx="8.29218107" cy="4.8" r="1.2"></circle>
                            </g>
                            <ellipse id="Oval-10" fill="#7F73E3" cx="32.5" cy="7" rx="2.40740741" ry="2.4"></ellipse>
                        </g>
                        <g id="Laptop" filter="url(#filter-25)" stroke="none" stroke-width="1" fill="none" fill-rule="evenodd" transform="translate(41.000000, 58.000000)">
                            <g id="laptop">
                                <g id="Rectangle-2">
                                    <use fill="#4B35EF" fill-rule="evenodd" xlink:href="#path-26"></use>
                                    <path stroke="#9F96EA" stroke-width="2" d="M5.87851038,78.1162791 L116.084249,78.1162791 L116.084249,2.4 C116.084249,1.62680135 115.457448,1 114.684249,1 L7.27851038,1 C6.50531173,1 5.87851038,1.62680135 5.87851038,2.4 L5.87851038,78.1162791 Z"></path>
                                </g>
                                <path d="M1.84092798,78.1395349 L120.853031,78.1395349 L120.853031,78.1395349 C121.405316,78.1395349 121.853031,78.5872501 121.853031,79.1395349 C121.853031,79.4520862 121.706896,79.7466615 121.458036,79.9357566 L116.37744,83.7962217 L116.37744,83.7962217 C116.203452,83.928425 115.990951,84 115.772435,84 L6.35480869,84 L6.35480869,84 C6.11647452,84 5.88597673,83.9148769 5.70485002,83.7599696 L1.1909693,79.8995044 L1.1909693,79.8995044 C0.771249707,79.5405422 0.721996162,78.9092958 1.08095843,78.4895762 C1.27094644,78.2674312 1.54862015,78.1395349 1.84092798,78.1395349 Z" id="Path-2" stroke="#9F96EA" stroke-width="2" fill="#4B35EF"></path>
                            </g>
                            <g id="web-browser" transform="translate(10.000000, 7.000000)">
                                <g id="Rectangle-5">
                                    <use fill="#FFFFFF" fill-rule="evenodd" xlink:href="#path-27"></use>
                                    <rect stroke="#393084" stroke-width="1" x="0.5" y="0.5" width="100" height="66" rx="2.4"></rect>
                                </g>
                                <g id="Rectangle-8">
                                    <use fill="#34B3A0" fill-rule="evenodd" xlink:href="#path-28"></use>
                                    <path stroke="#393084" stroke-width="1" d="M0.5,10.8239437 L100.5,10.8239437 L100.5,2.4 C100.5,1.35065898 99.649341,0.5 98.6,0.5 L2.4,0.5 C1.35065898,0.5 0.5,1.35065898 0.5,2.4 L0.5,10.8239437 Z"></path>
                                </g>
                                <g id="Rectangle-8-Copy">
                                    <use fill="#D8D8D8" fill-rule="evenodd" xlink:href="#path-29"></use>
                                    <rect stroke="#BEBFC1" stroke-width="1.2" x="12.0339623" y="21.3605634" width="75.0264151" height="10.1239437" rx="1.2"></rect>
                                </g>
                                <g id="Rectangle-8-Copy-3">
                                    <use fill="#D8D8D8" fill-rule="evenodd" xlink:href="#path-30"></use>
                                    <rect stroke="#BEBFC1" stroke-width="1.2" x="12.0339623" y="36.4591549" width="50.2528302" height="17.6732394" rx="1.2"></rect>
                                </g>
                                <g id="Rectangle-8-Copy-4">
                                    <use fill="#D8D8D8" fill-rule="evenodd" xlink:href="#path-31"></use>
                                    <rect stroke="#BEBFC1" stroke-width="1.2" x="67.2981132" y="36.4591549" width="19.7622642" height="17.6732394" rx="1.2"></rect>
                                </g>
                                <circle id="Oval" fill="#311B92" cx="4.76415094" cy="5.66197183" r="1.2"></circle>
                                <circle id="Oval" fill="#311B92" cx="8.5754717" cy="5.66197183" r="1.2"></circle>
                            </g>
                        </g>
                        <g id="phone" filter="url(#filter-32)" stroke="none" stroke-width="1" fill="none" fill-rule="evenodd" transform="translate(154.000000, 111.000000)">
                            <g stroke="#9F96EA">
                                <rect id="Rectangle-28" stroke-width="2" fill="#4B35EF" x="0" y="0" width="34" height="62" rx="2.4"></rect>
                                <rect id="Rectangle-3" stroke-width="1.2" x="13.9571429" y="56.6384615" width="6.08571429" height="1" rx="0.5"></rect>
                            </g>
                            <g id="mobile-web" transform="translate(1.214286, 5.961538)">
                                <g id="Rectangle-5">
                                    <use fill="#FFFFFF" fill-rule="evenodd" xlink:href="#path-33"></use>
                                    <rect stroke="#393084" stroke-width="1" x="0.5" y="0.5" width="30.5714286" height="46.6923077" rx="1.2"></rect>
                                </g>
                                <g id="Rectangle-8">
                                    <use fill="#34B3A0" fill-rule="evenodd" xlink:href="#path-34"></use>
                                    <path stroke="#393084" stroke-width="1" d="M0.5,6.65384615 L31.0714286,6.65384615 L31.0714286,1.2 C31.0714286,0.813400675 30.7580279,0.5 30.3714286,0.5 L1.2,0.5 C0.813400675,0.5 0.5,0.813400675 0.5,1.2 L0.5,6.65384615 Z"></path>
                                </g>
                                <g id="Rectangle-8-Copy">
                                    <use fill="#D8D8D8" fill-rule="evenodd" xlink:href="#path-35"></use>
                                    <rect stroke="#BEBFC1" stroke-width="1.2" x="4.24285714" y="10.1384615" width="23.0857143" height="10.7230769" rx="1.2"></rect>
                                </g>
                                <g id="Rectangle-8-Copy-5">
                                    <use fill="#D8D8D8" fill-rule="evenodd" xlink:href="#path-36"></use>
                                    <rect stroke="#BEBFC1" stroke-width="1.2" x="4.24285714" y="24.4461538" width="23.0857143" height="5.95384615" rx="1.2"></rect>
                                </g>
                                <g id="Rectangle-8-Copy-6">
                                    <use fill="#D8D8D8" fill-rule="evenodd" xlink:href="#path-37"></use>
                                    <rect stroke="#BEBFC1" stroke-width="1.2" x="4.24285714" y="33.9846154" width="23.0857143" height="5.95384615" rx="1.2"></rect>
                                </g>
                                <circle id="Oval" fill="#311B92" cx="4.85714286" cy="3.57692308" r="1.2"></circle>
                                <circle id="Oval" fill="#311B92" cx="8.5" cy="3.57692308" r="1.2"></circle>
                            </g>
                        </g>
                    </g>
                </g>
            </g>
        </g>
    </g>
</svg>